<?xml version="1.0" encoding="UTF-8" standalone="no"?>
<!DOCTYPE svg PUBLIC "-//W3C//DTD SVG 1.1//EN"
 "http://www.w3.org/Graphics/SVG/1.1/DTD/svg11.dtd">
<!-- Generated by graphviz version 2.40.1 (20161225.0304)
 -->
<!-- Title: G Pages: 1 -->
<svg width="188pt" height="216pt"
 viewBox="0.00 0.00 187.79 216.00" xmlns="http://www.w3.org/2000/svg" xmlns:xlink="http://www.w3.org/1999/xlink">
<g id="graph0" class="graph" transform="scale(1 1) rotate(0) translate(4 212)">
<title>G</title>
<polygon fill="#ffffff" stroke="transparent" points="-4,4 -4,-212 183.7855,-212 183.7855,4 -4,4"/>
<!-- A0 -->
<g id="node1" class="node">
<title>A0</title>
<polygon fill="none" stroke="#000000" points="136.856,-208 32.479,-208 32.479,-172 136.856,-172 136.856,-208"/>
<text text-anchor="middle" x="84.6675" y="-187" font-family="Helvetica,sans-Serif" font-size="10.00" fill="#000000">DependencyTree</text>
</g>
<!-- A1 -->
<g id="node2" class="node">
<title>A1</title>
<polygon fill="none" stroke="#000000" points="151.2502,-122 18.0848,-122 18.0848,-86 151.2502,-86 151.2502,-122"/>
<text text-anchor="middle" x="84.6675" y="-101" font-family="Helvetica,sans-Serif" font-size="10.00" fill="#000000">DependencyTreeConfig</text>
</g>
<!-- A0&#45;&gt;A1 -->
<g id="edge1" class="edge">
<title>A0&#45;&gt;A1</title>
<path fill="none" stroke="#000000" d="M84.6675,-171.7616C84.6675,-160.3597 84.6675,-145.4342 84.6675,-132.494"/>
<polygon fill="#000000" stroke="#000000" points="84.6675,-122.2121 89.1676,-132.2121 84.6675,-127.2121 84.6676,-132.2121 84.6676,-132.2121 84.6676,-132.2121 84.6675,-127.2121 80.1676,-132.2121 84.6675,-122.2121 84.6675,-122.2121"/>
</g>
<!-- A2 -->
<g id="node3" class="node">
<title>A2</title>
<polygon fill="none" stroke="#000000" points="71.5033,-36 -.1683,-36 -.1683,0 71.5033,0 71.5033,-36"/>
<text text-anchor="middle" x="35.6675" y="-15" font-family="Helvetica,sans-Serif" font-size="10.00" fill="#000000">Assembly</text>
</g>
<!-- A1&#45;&gt;A2 -->
<g id="edge2" class="edge">
<title>A1&#45;&gt;A2</title>
<path fill="none" stroke="#000000" d="M74.2759,-85.7616C67.5195,-73.9036 58.5918,-58.2345 51.0233,-44.951"/>
<polygon fill="#000000" stroke="#000000" points="46.0442,-36.2121 54.9046,-42.673 48.5194,-40.5564 50.9947,-44.9008 50.9947,-44.9008 50.9947,-44.9008 48.5194,-40.5564 47.0848,-47.1285 46.0442,-36.2121 46.0442,-36.2121"/>
</g>
<!-- A3 -->
<g id="node4" class="node">
<title>A3</title>
<polygon fill="none" stroke="#000000" points="179.9038,-36 89.4312,-36 89.4312,0 179.9038,0 179.9038,-36"/>
<text text-anchor="middle" x="134.6675" y="-15" font-family="Helvetica,sans-Serif" font-size="10.00" fill="#000000">IConfiguration</text>
</g>
<!-- A1&#45;&gt;A3 -->
<g id="edge3" class="edge">
<title>A1&#45;&gt;A3</title>
<path fill="none" stroke="#000000" d="M95.2712,-85.7616C102.1654,-73.9036 111.2754,-58.2345 118.9983,-44.951"/>
<polygon fill="#000000" stroke="#000000" points="124.0791,-36.2121 122.9431,-47.119 121.5659,-40.5346 119.0528,-44.8572 119.0528,-44.8572 119.0528,-44.8572 121.5659,-40.5346 115.1625,-42.5954 124.0791,-36.2121 124.0791,-36.2121"/>
</g>
</g>
</svg>
