<?xml version="1.0" encoding="UTF-8" standalone="no"?>
<!DOCTYPE svg PUBLIC "-//W3C//DTD SVG 1.1//EN"
 "http://www.w3.org/Graphics/SVG/1.1/DTD/svg11.dtd">
<!-- Generated by graphviz version 2.40.1 (20161225.0304)
 -->
<!-- Title: G Pages: 1 -->
<svg width="352pt" height="216pt"
 viewBox="0.00 0.00 351.72 216.00" xmlns="http://www.w3.org/2000/svg" xmlns:xlink="http://www.w3.org/1999/xlink">
<g id="graph0" class="graph" transform="scale(1 1) rotate(0) translate(4 212)">
<title>G</title>
<polygon fill="#ffffff" stroke="transparent" points="-4,4 -4,-212 347.7245,-212 347.7245,4 -4,4"/>
<!-- A0 -->
<g id="node1" class="node">
<title>A0</title>
<polygon fill="none" stroke="#000000" points="236.856,-208 132.479,-208 132.479,-172 236.856,-172 236.856,-208"/>
<text text-anchor="middle" x="184.6675" y="-187" font-family="Helvetica,sans-Serif" font-size="10.00" fill="#000000">DependencyTree</text>
</g>
<!-- A1 -->
<g id="node2" class="node">
<title>A1</title>
<polygon fill="none" stroke="#000000" points="251.2502,-122 118.0848,-122 118.0848,-86 251.2502,-86 251.2502,-122"/>
<text text-anchor="middle" x="184.6675" y="-101" font-family="Helvetica,sans-Serif" font-size="10.00" fill="#000000">DependencyTreeConfig</text>
</g>
<!-- A0&#45;&gt;A1 -->
<g id="edge1" class="edge">
<title>A0&#45;&gt;A1</title>
<path fill="none" stroke="#000000" d="M184.6675,-171.7616C184.6675,-160.3597 184.6675,-145.4342 184.6675,-132.494"/>
<polygon fill="#000000" stroke="#000000" points="184.6675,-122.2121 189.1676,-132.2121 184.6675,-127.2121 184.6676,-132.2121 184.6676,-132.2121 184.6676,-132.2121 184.6675,-127.2121 180.1676,-132.2121 184.6675,-122.2121 184.6675,-122.2121"/>
</g>
<!-- A2 -->
<g id="node3" class="node">
<title>A2</title>
<polygon fill="none" stroke="#000000" points="71.5033,-36 -.1683,-36 -.1683,0 71.5033,0 71.5033,-36"/>
<text text-anchor="middle" x="35.6675" y="-15" font-family="Helvetica,sans-Serif" font-size="10.00" fill="#000000">Assembly</text>
</g>
<!-- A1&#45;&gt;A2 -->
<g id="edge2" class="edge">
<title>A1&#45;&gt;A2</title>
<path fill="none" stroke="#000000" d="M153.4322,-85.9716C130.7837,-72.8993 99.9715,-55.115 75.545,-41.0165"/>
<polygon fill="#000000" stroke="#000000" points="66.8617,-36.0047 77.7721,-37.1062 71.1921,-38.5042 75.5226,-41.0036 75.5226,-41.0036 75.5226,-41.0036 71.1921,-38.5042 73.273,-44.901 66.8617,-36.0047 66.8617,-36.0047"/>
</g>
<!-- A3 -->
<g id="node4" class="node">
<title>A3</title>
<polygon fill="none" stroke="#000000" points="179.9038,-36 89.4312,-36 89.4312,0 179.9038,0 179.9038,-36"/>
<text text-anchor="middle" x="134.6675" y="-15" font-family="Helvetica,sans-Serif" font-size="10.00" fill="#000000">IConfiguration</text>
</g>
<!-- A1&#45;&gt;A3 -->
<g id="edge3" class="edge">
<title>A1&#45;&gt;A3</title>
<path fill="none" stroke="#000000" d="M174.0638,-85.7616C167.1696,-73.9036 158.0596,-58.2345 150.3367,-44.951"/>
<polygon fill="#000000" stroke="#000000" points="145.2559,-36.2121 154.1725,-42.5954 147.7691,-40.5346 150.2822,-44.8572 150.2822,-44.8572 150.2822,-44.8572 147.7691,-40.5346 146.3919,-47.119 145.2559,-36.2121 145.2559,-36.2121"/>
</g>
<!-- A4 -->
<g id="node5" class="node">
<title>A4</title>
<polygon fill="none" stroke="#000000" points="271.7896,-36 197.5454,-36 197.5454,0 271.7896,0 271.7896,-36"/>
<text text-anchor="middle" x="234.6675" y="-15" font-family="Helvetica,sans-Serif" font-size="10.00" fill="#000000">HashSet`1</text>
</g>
<!-- A1&#45;&gt;A4 -->
<g id="edge4" class="edge">
<title>A1&#45;&gt;A4</title>
<path fill="none" stroke="#000000" d="M195.2712,-85.7616C202.1654,-73.9036 211.2754,-58.2345 218.9983,-44.951"/>
<polygon fill="#000000" stroke="#000000" points="224.0791,-36.2121 222.9431,-47.119 221.5659,-40.5346 219.0528,-44.8572 219.0528,-44.8572 219.0528,-44.8572 221.5659,-40.5346 215.1625,-42.5954 224.0791,-36.2121 224.0791,-36.2121"/>
</g>
<!-- A5 -->
<g id="node6" class="node">
<title>A5</title>
<polygon fill="none" stroke="#000000" points="343.7816,-36 289.5534,-36 289.5534,0 343.7816,0 343.7816,-36"/>
<text text-anchor="middle" x="316.6675" y="-15" font-family="Helvetica,sans-Serif" font-size="10.00" fill="#000000">String</text>
</g>
<!-- A1&#45;&gt;A5 -->
<g id="edge5" class="edge">
<title>A1&#45;&gt;A5</title>
<path fill="none" stroke="#000000" d="M212.339,-85.9716C232.2723,-72.9847 259.3438,-55.3473 280.9148,-41.2934"/>
<polygon fill="#000000" stroke="#000000" points="289.4846,-35.7101 283.5624,-44.9393 285.2952,-38.4395 281.1059,-41.1689 281.1059,-41.1689 281.1059,-41.1689 285.2952,-38.4395 278.6494,-37.3986 289.4846,-35.7101 289.4846,-35.7101"/>
</g>
</g>
</svg>
